# xmcd
# Copyright (C) 1995-1998 Ti Kan
#
# Track frame offsets:
#       150
#       13950
#       31500
#       53325
#       68400
#       86325
#       99900
#       124875
#       139275
#       154575
#       167025
#       185550
#       201825
#       219150
#       235650
#       247275
#       261975
#       273750
#
# Disc length: 3891 seconds
#
# Revision: 17
# Processed by: cddbd v1.5.2PL0 Copyright (c) Steve Scherf et al.
# Submitted via: CD-Transfer v1.0
#
DISCID=ec0f3112
DTITLE=Tricky - 
DYEAR=2008
DGENRE=
TTITLE0=Don't Gimme That (Radio Version)
TTITLE1=Juliet Of The Spirits
TTITLE2=Hearts On Fire
TTITLE3=Space Dance
TTITLE4=Wake It Up (Radio)
TTITLE5=Stay Positive
TTITLE6=Crazy World
TTITLE7=Make Love
TTITLE8=I Kissed A Girl (Dj Mattches Gary Glitter Refix)
TTITLE9=Always Where I Need To Be
TTITLE10=Baby
TTITLE11=Je Veux Que Tu Me Mentes
TTITLE12=Comme Avant
TTITLE13=Natural Disaster
TTITLE14=Man-Sized Wreath
TTITLE15=Meccano (Edit)
TTITLE16=Council Estate (Radio Edit)
TTITLE17=Council Estate (South Rakkas Crew Remix)
EXTD=
EXTT0=
EXTT1=
EXTT2=
EXTT3=
EXTT4=
EXTT5=
EXTT6=
EXTT7=
EXTT8=
EXTT9=
EXTT10=
EXTT11=
EXTT12=
EXTT13=
EXTT14=
EXTT15=
EXTT16=
EXTT17=
PLAYORDER=
